<?xml version="1.0" encoding="utf-8"?>
<!-- Generator: Adobe Illustrator 19.0.0, SVG Export Plug-In . SVG Version: 6.00 Build 0)  -->
<svg version="1.1" id="Oikos" xmlns="http://www.w3.org/2000/svg" xmlns:xlink="http://www.w3.org/1999/xlink" x="0px" y="0px"
	 viewBox="0 0 200 100" style="enable-background:new 0 0 200 100;" xml:space="preserve">
<style type="text/css">
	.st0{fill:#FFFFFF;}
</style>
<path id="S" class="st0" d="M192,58.7c0,7.7-5.9,13.8-17.2,13.8c-11,0-16.7-6.4-17.5-7.2l4.1-7.2c3.8,4.3,9.4,6.1,13.5,6.1
	c5.7,0,8.9-2.1,8.9-5.1s-3.1-4.5-8.7-5.4c-12.2-1.9-16.3-6.4-16.3-12.9c0-7.2,5.8-13.4,16.5-13.4c1.9,0,8.4,0.1,14.7,5.2l-3.4,7
	c-1-0.8-5.2-4.1-11.4-4.1c-4.3,0-8.2,1.2-8.2,4.7c0,2.9,2.5,4,8.7,5C185,46.9,192,49.5,192,58.7z"/>
<path id="O" class="st0" d="M154.1,50c0,12.4-10.1,22.5-22.5,22.5S109.2,62.4,109.2,50s10.1-22.5,22.5-22.5S154.1,37.6,154.1,50z
	 M146,50c0-7.9-6.4-14.3-14.3-14.3s-14.3,6.4-14.3,14.3s6.4,14.3,14.3,14.3S146,57.9,146,50z"/>
<path id="K" class="st0" d="M110.2,71.5H99.9L83.6,52.7v18.8h-8.2V28.5h8.2v17.8l15.2-17.8h10.3L90.8,49L110.2,71.5z"/>
<path id="I" class="st0" d="M59.1,71.5V28.5h8.2v42.9H59.1z"/>
<path id="O_1_" class="st0" d="M43.7,35.7v28.5H15.2V35.7H43.7 M50.9,28.6H8v42.9h42.9V28.6L50.9,28.6z"/>
</svg>
