<?xml version="1.0" encoding="utf-8"?>
<!-- Generator: Adobe Illustrator 19.0.0, SVG Export Plug-In . SVG Version: 6.00 Build 0)  -->
<svg version="1.1" id="Layer_1" xmlns="http://www.w3.org/2000/svg" xmlns:xlink="http://www.w3.org/1999/xlink" x="0px" y="0px"
	 viewBox="0 0 200 100" style="enable-background:new 0 0 200 100;" xml:space="preserve">
<style type="text/css">
	.st0{fill:#FFFFFF;}
</style>
<path id="S" class="st0" d="M198.8,57.2c0,6.3-4.8,11.3-14.1,11.3c-9,0-13.6-5.2-14.3-5.9l3.4-5.9c3.1,3.5,7.7,5,11,5
	c4.7,0,7.3-1.7,7.3-4.2c0-2.5-2.5-3.7-7.1-4.4c-10-1.6-13.3-5.2-13.3-10.5c0-5.9,4.7-10.9,13.5-10.9c1.6,0,6.9,0.1,12,4.2l-2.8,5.7
	c-0.8-0.7-4.2-3.3-9.3-3.3c-3.5,0-6.7,1-6.7,3.8c0,2.4,2,3.3,7.1,4.1C193,47.6,198.8,49.7,198.8,57.2z"/>
<path id="O" class="st0" d="M167.8,50.1c0,10.1-8.3,18.4-18.4,18.4s-18.3-8.3-18.3-18.4s8.3-18.4,18.4-18.4S167.8,40,167.8,50.1z
	 M161.2,50.1c0-6.5-5.2-11.7-11.7-11.7c-6.5,0-11.7,5.2-11.7,11.7s5.2,11.7,11.7,11.7C155.9,61.8,161.2,56.6,161.2,50.1z"/>
<path id="K" class="st0" d="M131.9,67.7h-8.4l-13.3-15.4v15.4h-6.7V32.5h6.7v14.5l12.4-14.5h8.4l-15,16.8L131.9,67.7z"/>
<path id="I" class="st0" d="M90.2,67.7V32.5h6.7v35.1L90.2,67.7L90.2,67.7z"/>
<path id="O_1_" class="st0" d="M77.6,38.4v23.3H54.3V38.4H77.6 M83.5,32.6H48.4v35.1h35.1V32.6L83.5,32.6z"/>
</svg>
